<?xml version="1.0" encoding="UTF-8" standalone="no"?>
<!-- Created with Inkscape (http://www.inkscape.org/) -->

<svg
   xmlns:dc="http://purl.org/dc/elements/1.1/"
   xmlns:cc="http://creativecommons.org/ns#"
   xmlns:rdf="http://www.w3.org/1999/02/22-rdf-syntax-ns#"
   xmlns:svg="http://www.w3.org/2000/svg"
   xmlns="http://www.w3.org/2000/svg"
   xmlns:sodipodi="http://sodipodi.sourceforge.net/DTD/sodipodi-0.dtd"
   xmlns:inkscape="http://www.inkscape.org/namespaces/inkscape"
   width="234.27356mm"
   height="59.585999mm"
   viewBox="0 0 234.27356 59.585998"
   version="1.1"
   id="svg1746"
   inkscape:version="0.92.5 (2060ec1f9f, 2020-04-08)"
   sodipodi:docname="src_gn2gn.svg"
   inkscape:export-filename="/home/fcloitre/Dev/gn_projects/gn2gn_client/Gn2Gn.png"
   inkscape:export-xdpi="54.136879"
   inkscape:export-ydpi="54.136879">
  <defs
     id="defs1740">
    <inkscape:perspective
       id="perspective2491"
       inkscape:persp3d-origin="270.04438 : 185.57625 : 1"
       inkscape:vp_z="540.08876 : 278.36438 : 1"
       inkscape:vp_y="0 : 999.99998 : 0"
       inkscape:vp_x="0 : 278.36438 : 1"
       sodipodi:type="inkscape:persp3d" />
  </defs>
  <sodipodi:namedview
     id="base"
     pagecolor="#ffffff"
     bordercolor="#666666"
     borderopacity="1.0"
     inkscape:pageopacity="0.0"
     inkscape:pageshadow="2"
     inkscape:zoom="0.98994949"
     inkscape:cx="591.6635"
     inkscape:cy="35.371768"
     inkscape:document-units="mm"
     inkscape:current-layer="g1022"
     showgrid="false"
     fit-margin-top="0"
     fit-margin-left="0"
     fit-margin-right="0"
     fit-margin-bottom="0"
     inkscape:window-width="478"
     inkscape:window-height="1056"
     inkscape:window-x="480"
     inkscape:window-y="0"
     inkscape:window-maximized="0" />
  <metadata
     id="metadata1743">
    <rdf:RDF>
      <cc:Work
         rdf:about="">
        <dc:format>image/svg+xml</dc:format>
        <dc:type
           rdf:resource="http://purl.org/dc/dcmitype/StillImage" />
        <dc:title></dc:title>
      </cc:Work>
    </rdf:RDF>
  </metadata>
  <g
     inkscape:label="Calque 1"
     inkscape:groupmode="layer"
     id="layer1"
     transform="translate(58.951108,-131.91192)">
    <g
       id="g1022"
       transform="translate(-24.209486,8.5396534)">
      <text
         xml:space="preserve"
         style="font-style:normal;font-weight:normal;font-size:46.17531586px;line-height:1.25;font-family:sans-serif;letter-spacing:0px;word-spacing:0px;fill:#ffffff;fill-opacity:1;stroke:#222222;stroke-width:1;stroke-miterlimit:4;stroke-dasharray:none;stroke-opacity:0.39215686"
         x="81.288811"
         y="166.48116"
         id="text76"><tspan
           sodipodi:role="line"
           id="tspan74"
           x="81.288811"
           y="166.48116"
           style="font-style:normal;font-variant:normal;font-weight:normal;font-stretch:normal;font-family:Dyuthi;-inkscape-font-specification:Dyuthi;fill:#ffffff;fill-opacity:1;stroke:#222222;stroke-width:1;stroke-miterlimit:4;stroke-dasharray:none;stroke-opacity:0.39215686">#&gt;</tspan></text>
      <path
         style="fill:#222222;fill-opacity:0.98514847;stroke:#222222;stroke-width:0.25055367;stroke-opacity:0.39215686"
         d="m 67.650619,123.66083 c -1.418134,2.42787 -4.011364,4.5701 -6.514394,5.82287 -0.699046,0.35079 -1.971858,1.03229 -2.756092,0.80679 0,0 -3.50775,-2.68343 -3.50775,-2.68343 -2.242456,-1.50833 -5.063689,-2.43037 -7.767163,-2.44291 -4.317038,-0.0201 -6.927808,0.39339 -10.523253,3.04674 -4.46236,3.29228 -6.32648,8.08537 -6.263842,13.48981 0.02756,2.29758 0.671485,4.46737 1.693742,6.51441 2.465448,4.93088 7.754637,8.49125 13.339477,8.51882 0,0 1.753876,0 1.753876,0 5.634952,-0.0676 11.147132,-3.94372 13.452225,-9.01994 0.891972,-1.96685 1.155053,-3.40001 1.370529,-5.51217 0.210466,-2.04201 0.0075,-4.35462 -0.791749,-6.26385 3.480189,-0.28563 7.631863,-1.91173 9.771589,-4.76053 -2.798682,1.11248 -4.24187,1.50333 -7.266054,1.50333 2.984095,-3.01416 1.889175,-2.83627 2.913939,-4.76052 0.721594,-1.35801 1.718797,-2.63332 1.09492,-4.25942 z m -75.9177551,19.5432 c 0,0.99971 0.1027279,4.82566 -0.150332,5.51218 -0.8869591,2.3978 -5.4645749,3.98129 -7.8673839,4.00886 -1.951813,0.0226 -3.197066,-0.18041 -5.011073,-0.96964 -1.300374,-0.56876 -2.445404,-1.42565 -3.507751,-2.36022 -6.752421,-5.94313 -4.454844,-15.92268 3.257197,-19.76869 1.91423,-0.95461 3.192055,-0.97716 5.261627,-0.95461 2.169795,0.0276 4.2093,0.69153 6.013287,1.90422 0.8694222,0.58378 2.1096617,1.7689 3.0066445,2.09963 1.1776011,0.43345 2.3802584,-0.29064 2.6383297,-1.49832 0.2956525,-1.39056 -1.1801087,-2.54812 -2.1372223,-3.30229 -2.8513017,-2.24996 -6.3966349,-3.37746 -10.0221469,-3.37746 -6.361556,0 -12.527683,4.01137 -14.920469,9.93695 -0.959621,2.37525 -1.142525,4.24438 -1.114963,6.76496 0.03508,2.97407 0.994696,6.08344 2.698461,8.51882 2.931478,4.18675 7.133263,6.95287 12.334757,7.01551 2.951521,0.0326 5.599874,-0.11025 8.2682699,-1.54843 1.8465796,-0.9947 4.6527819,-2.61578 5.3117375,-4.71541 0.2254988,-0.72411 0.2004426,-1.50584 0.2004426,-2.25498 0,0 0,-5.51219 0,-5.51219 -0.00244,-1.08991 0.077678,-2.33516 -0.8218151,-3.12942 -0.6840127,-0.60383 -1.5759842,-0.61636 -2.4353814,-0.62888 0,0 -7.5166085,0 -7.5166085,0 -0.979667,0.003 -2.129708,-0.0626 -2.898908,0.66396 -0.899487,0.84938 -0.849376,2.68092 0.653946,3.3073 0.886959,0.37083 2.277532,0.28815 3.247174,0.28815 0,0 5.5121809,0 5.5121809,0 z m 14.2815575,9.27048 c 0,0 0,-9.77159 0,-9.77159 0,0 16.0354336,0 16.0354336,0 1.320417,-0.0176 2.746067,-0.14782 2.96906,-1.75388 0.290644,-2.10716 -1.287845,-2.48299 -2.96906,-2.50554 0,0 -16.0354336,0 -16.0354336,0 0,0 0,-7.0155 0,-7.0155 0.00505,-2.16227 0.3432584,-2.50052 2.5055375,-2.50554 0,0 15.2837721,0 15.2837721,0 0.668978,0 1.63361,0.0527 2.2174,-0.29314 0.999709,-0.59131 1.059841,-2.49301 0.180398,-3.2121 -0.691526,-0.56876 -1.803986,-0.50111 -2.648351,-0.50361 0,0 -18.5409705,0 -18.5409705,0 -2.8362678,0.004 -3.2446693,1.07988 -3.2571978,3.7583 0,0 0,24.05316 0,24.05316 0.00504,3.00414 0.2981589,4.00384 3.5077507,4.00886 0,0 18.2904176,0 18.2904176,0 0.706561,0 1.608554,0.0502 2.239949,-0.29315 1.092413,-0.59883 1.435673,-2.43036 0.438469,-3.28476 -0.694034,-0.59131 -2.052035,-0.67148 -2.928972,-0.68151 0,0 -8.769378,0 -8.769378,0 0,0 -8.5188246,0 -8.5188246,0 z M 51.114079,128.92246 c -0.932061,1.27532 -5.396925,5.27918 -6.76495,6.01329 2.016957,-0.47103 4.512472,-3.81092 6.514395,-3.07177 0.656451,0.24302 1.150041,0.76919 1.555939,1.32292 1.82403,2.47798 0.749154,3.62801 1.58851,6.00827 0.453501,1.29035 1.220197,2.4429 2.189838,3.40001 0.596319,0.59131 1.706271,1.37303 1.994407,2.13471 0.323215,0.85439 -0.120266,1.74636 -0.533679,2.483 -0.93707,1.68122 -2.232433,3.14193 -3.78837,4.27694 -2.813718,2.05454 -6.587055,2.95153 -10.022147,2.33267 -1.410617,-0.25307 -3.307308,-0.56126 -3.349902,-2.35019 -0.02756,-1.15004 0.834345,-2.04453 1.345474,-3.00666 -1.358001,0.0226 -1.575982,0.67399 -2.254983,1.75389 0,0 -3.14946,-5.76274 -3.14946,-5.76274 0,0 0.142816,-1.50332 0.142816,-1.50332 0.56625,0.14281 1.165074,0.3658 1.753876,0.31819 0.679,-0.0552 1.307888,-0.4986 2.004428,-0.33072 1.565959,0.37332 2.397798,2.78615 3.532808,3.47267 0.939574,0.56876 1.864117,0.17288 1.896691,-0.95962 0.02756,-0.89197 -0.588803,-1.86663 -1.197647,-2.47296 -2.798684,-2.8012 -5.587346,1.28282 -7.048073,-2.78366 -0.230511,-0.64642 -0.345766,-1.32793 -0.440976,-2.00443 -1.418132,2.50053 -0.907004,2.08461 -1.503323,4.50997 -0.721593,-0.85939 -2.159771,-3.15698 -2.179816,-4.25942 -0.02255,-1.25527 0.929554,-3.10185 1.428156,-4.25942 1.811504,0.40592 2.029486,1.66368 2.505538,3.25721 2.20487,-2.4429 5.329275,-0.17038 5.51218,3.75831 2.961544,-0.69404 4.354622,1.51583 6.764947,2.75609 0.653947,-2.69847 -0.300663,-3.48271 -2.505535,-4.76052 0.24053,-0.23803 0.546207,-0.4936 0.671484,-0.81931 0.355785,-0.91452 -0.508624,-2.49802 -1.433169,-2.76361 -0.621373,-0.17789 -1.974362,0.43094 -2.713495,0.57627 -0.0051,-0.61385 0.165366,-1.72631 0,-2.25248 -0.463524,-1.97686 -2.976578,-2.93147 -4.793091,-2.7586 0.260577,1.45322 0.355784,1.78896 0,3.2572 0,0 -2.00443,-2.50553 -2.00443,-2.50553 2.918951,-3.98631 9.954498,-5.10629 14.281559,-3.00665 z m 12.527681,3.75831 c 0,0 0,0.25055 0,0.25055 0,0 -0.250553,-0.25055 -0.250553,-0.25055 0,0 0.250553,0 0.250553,0 z m -21.798166,8.47874 c -0.01504,-1.41062 -0.147828,-2.64584 -1.513344,-3.53532 -0.518646,-0.29565 -1.525873,-0.60634 -1.989396,0 -0.719088,0.86441 0.09019,2.99412 1.024764,3.53532 0.806782,0.39588 1.633609,0.1879 2.477976,0 z m 24.053148,41.63199 c 0,0 0,-18.54097 0,-18.54097 0,-0.4986 0.05762,-1.45571 -0.255564,-1.85409 -0.338247,-0.42594 -1.009731,-0.39086 -1.498311,-0.40088 0,0 -3.758303,0 -3.758303,0 0,0 -17.288202,0 -17.288202,0 0,0 -75.416647,0 -75.416647,0 -0.498603,0 -1.455717,-0.0577 -1.854098,0.25556 -0.631395,0.49861 -0.400885,3.63302 -0.400885,4.50495 0,0 0,13.78045 0,13.78045 0,0.57628 -0.09521,1.60605 0.400885,1.99942 0.370819,0.29315 1.147536,0.25306 1.603544,0.25556 0,0 5.51218,0 5.51218,0 0,0 24.3037029,0 24.3037029,0 0,0 27.0597951,0 27.0597951,0 0,0 41.591903,0 41.591903,0 z m -80.177164,-5.26163 c 0,0 0,-11.776 0,-11.776 0.01004,-0.54622 -0.01004,-1.42567 0.576273,-1.7113 1.047313,-0.51362 1.165074,1.10996 1.177601,1.7113 0,0 0,12.52767 0,12.52767 -0.0051,3.12691 -1.119975,2.77613 -2.964049,0.75166 0,0 -6.136059,-6.80754 -6.136059,-6.80754 -1.210175,-1.30539 -3.996331,-4.02389 -4.680342,-5.46959 -0.388359,1.37053 -0.250553,2.84379 -0.250553,4.25941 0,0 0,7.26606 0,7.26606 -0.0024,0.6314 0.102726,1.87414 -0.568757,2.21239 -1.094921,0.5512 -1.175097,-1.38056 -1.18512,-1.96184 0,0 0,-12.02657 0,-12.02657 0,-0.74666 -0.137805,-2.60075 1.019754,-2.57068 0.927048,0.025 3.106864,2.82624 3.78336,3.57288 0,0 9.227892,10.02215 9.227892,10.02215 z M 12.528817,166.0044 c 0.633901,0 2.956533,-0.22799 2.956533,0.75167 0,0.97966 -2.322632,0.75165 -2.956533,0.75165 0,0 0,11.77603 0,11.77603 0,0 3.006644,0 3.006644,0 0.521151,0.0101 2.655868,0.34577 1.410617,1.24776 -0.390864,0.28563 -1.190131,0.25305 -1.661172,0.25556 -3.5303,0.0225 -4.464864,0.37583 -4.509964,-2.00443 0,0 0,-11.27492 0,-11.27492 -0.661463,0 -3.0968445,0.26809 -3.104361,-0.73161 -0.00751,-1.01725 2.445405,-0.77171 3.144449,-0.77171 -0.03507,-0.33574 -0.04761,-0.92703 0,-1.23773 0.263081,-0.8168 0.95962,-1.04231 1.42064,-0.40339 0.30818,0.42845 0.280619,1.135 0.293147,1.64112 z m -8.7693771,3.00666 c 0,-0.58129 -0.1778936,-3.38499 1.1500405,-2.7135 0.6163614,0.31069 0.5938116,1.37804 0.6038351,1.96183 0,0 0,10.2727 0,10.2727 -0.010008,0.59632 0.00751,1.89669 -0.7942551,2.02698 -0.3006642,0.0477 -0.5411973,-0.11777 -0.7040559,-0.3558 -0.3382472,-0.49359 -0.2555646,-1.80898 -0.2555646,-2.42285 -1.2627914,1.25026 -2.0395085,2.01195 -3.7583055,2.61829 -6.5419562,2.3076 -12.9962174,-4.78307 -9.1301743,-10.88655 0.5988229,-0.94709 1.1901297,-1.5384 2.1146718,-2.16478 0.9771585,-0.65897 1.8490869,-1.01726 3.0066441,-1.22772 1.1650752,-0.21046 2.6182864,-0.14783 3.75830543,0.1779 1.79396357,0.51363 2.72351727,1.44069 4.00885847,2.7135 z m 29.0642211,8.76936 c -1.26279,1.25026 -2.039506,2.01195 -3.758303,2.61829 -3.633029,1.28284 -7.814769,-0.42342 -9.521038,-3.87105 -0.513637,-1.03228 -0.73663,-3.09184 -0.751663,-4.25941 0,0 0,-4.00886 0,-4.00886 0.01004,-0.58128 0.09019,-2.51305 1.18512,-1.96183 0.671483,0.33825 0.566251,1.58099 0.568756,2.21238 0.0051,2.49052 -0.483567,5.98573 1.099931,8.01772 3.056754,3.92117 8.451175,3.52779 10.71618,-1.00221 0.741639,-1.48329 0.458512,-4.99604 0.461017,-6.76495 0,-0.66898 -0.102725,-2.10716 0.603835,-2.46294 1.117469,-0.56375 1.145032,1.38806 1.150041,1.96183 0,0 0,10.2727 0,10.2727 -0.0051,0.60383 0.06264,1.89419 -0.761682,2.02698 -0.303171,0.0477 -0.533679,-0.12027 -0.699044,-0.3558 -0.365809,-0.52866 -0.29315,-1.77641 -0.29315,-2.42285 z m 6.263843,-8.76936 c 1.553431,-1.53841 2.530591,-2.50303 4.760518,-2.8914 0.53869,-0.0928 1.671193,-0.21297 1.919241,0.451 0.385853,1.01975 -1.703765,0.89448 -3.172008,1.64614 -2.598241,1.33043 -3.50274,3.28476 -3.507751,6.05588 0,0 0,4.25941 0,4.25941 -0.0051,0.59132 0.06014,1.64614 -0.568758,1.96184 -1.094919,0.5512 -1.175095,-1.38056 -1.185117,-1.96184 0,0 0,-9.77159 0,-9.77159 0,-0.66397 -0.120267,-2.38027 0.794254,-2.52809 0.300664,-0.0477 0.541195,0.11777 0.704056,0.35579 0.338246,0.49359 0.255565,1.80899 0.255565,2.42286 z m 12.778235,9.27048 c 2.234938,0.6314 3.304803,1.55594 5.762735,0.56124 1.022257,-0.41592 1.408111,-0.85439 2.004427,-1.14002 0.461021,-0.223 1.355496,-0.41593 1.350487,0.38585 -0.0024,0.69152 -0.819312,1.29035 -1.350487,1.60605 -1.350483,0.79677 -2.959037,1.11998 -4.509964,1.08741 -4.15418,-0.0802 -7.754636,-3.50525 -7.494058,-7.76215 0.253058,-4.12162 3.708193,-7.013 7.744612,-7.013 1.45321,0 5.604884,0.86941 5.604884,2.75609 0,0.89196 -1.701259,2.37775 -2.347686,2.96154 -1.355497,1.22772 -5.890517,5.34932 -6.76495,6.55699 z M -3.7571699,167.63802 c -1.1700857,0.32071 -1.8265364,0.59382 -2.7510785,1.42064 -4.8006086,4.28446 -0.4860749,11.35759 5.5071675,10.05722 3.7683272,-0.8168 6.1510924,-5.15138 4.0113651,-8.6015 -1.4832776,-2.3903 -4.0790145,-3.3023 -6.7674541,-2.87636 z m 54.3701419,9.39076 c 0,0 5.762734,-5.26164 5.762734,-5.26164 0,0 2.75609,-3.2572 2.75609,-3.2572 -2.232434,-0.94208 -3.888594,-1.45571 -6.263842,-0.46853 -3.723227,1.54591 -4.422272,5.92809 -2.254982,8.98737 z"
         id="Sélection #1"
         inkscape:connector-curvature="0" />
      <g
         id="g1467"
         transform="matrix(0.14148265,0,0,0.14148265,140.25272,121.72899)"
         style="fill:none;fill-opacity:0.98514847;stroke:#222222;stroke-width:10.60200691;stroke-miterlimit:4;stroke-dasharray:none;stroke-opacity:0.98431373">
        <g
           style="clip-rule:nonzero;fill:none;fill-opacity:0.98514847;fill-rule:nonzero;stroke:#222222;stroke-width:10.60200691;stroke-miterlimit:4;stroke-dasharray:none;stroke-opacity:0.98431373"
           id="orginal">
	</g>
        <g
           id="g3275"
           style="fill:none;fill-opacity:0.98514847;stroke:#222222;stroke-width:10.60200691;stroke-miterlimit:4;stroke-dasharray:none;stroke-opacity:0.98431373">
          <path
             id="path2464"
             d="m 402.395,271.23 c -50.302,10.376 -53.76,-6.655 -53.76,-6.655 53.111,-78.808 75.313,-178.843 56.153,-203.326 -52.27,-66.785 -142.752,-35.2 -144.262,-34.38 l -0.486,0.087 c -9.938,-2.063 -21.06,-3.292 -33.56,-3.496 -22.761,-0.373 -40.026,5.967 -53.127,15.902 0,0 -161.411,-66.495 -153.904,83.63 1.597,31.938 45.776,241.657 98.471,178.312 19.26,-23.163 37.869,-42.748 37.869,-42.748 9.243,6.14 20.308,9.272 31.908,8.147 l 0.901,-0.765 c -0.28,2.876 -0.152,5.689 0.361,9.019 -13.575,15.167 -9.586,17.83 -36.723,23.416 -27.459,5.659 -11.328,15.734 -0.796,18.367 12.768,3.193 42.307,7.716 62.266,-20.224 l -0.796,3.188 c 5.319,4.26 9.054,27.711 8.428,48.969 -0.626,21.259 -1.044,35.854 3.147,47.254 4.191,11.4 8.368,37.05 44.042,29.406 29.809,-6.388 45.256,-22.942 47.405,-50.555 1.525,-19.631 4.976,-16.729 5.194,-34.28 l 2.768,-8.309 c 3.192,-26.611 0.507,-35.196 18.872,-31.203 l 4.463,0.392 c 13.517,0.615 31.208,-2.174 41.591,-7 22.358,-10.376 35.618,-27.7 13.573,-23.148 z"
             style="fill:none;fill-opacity:0.98514847;fill-rule:nonzero;stroke:#222222;stroke-width:10.60200691;stroke-linecap:round;stroke-linejoin:round;stroke-miterlimit:4;stroke-dasharray:none;stroke-opacity:0.98431373"
             inkscape:connector-curvature="0" />
          <path
             style="fill:none;fill-opacity:0.98514847;fill-rule:nonzero;stroke:#222222;stroke-width:10.60200691;stroke-linecap:round;stroke-linejoin:round;stroke-miterlimit:4;stroke-dasharray:none;stroke-opacity:0.98431373"
             id="path2466"
             d="m 215.866,286.484 c -1.385,49.516 0.348,99.377 5.193,111.495 4.848,12.118 15.223,35.688 50.9,28.045 29.806,-6.39 40.651,-18.756 45.357,-46.051 3.466,-20.082 10.148,-75.854 11.005,-87.281"
             inkscape:connector-curvature="0" />
          <path
             style="fill:none;fill-opacity:0.98514847;fill-rule:nonzero;stroke:#222222;stroke-width:10.60200691;stroke-linecap:round;stroke-linejoin:round;stroke-miterlimit:4;stroke-dasharray:none;stroke-opacity:0.98431373"
             id="path2468"
             d="m 173.104,38.256 c 0,0 -161.521,-66.016 -154.012,84.109 1.597,31.938 45.779,241.664 98.473,178.316 19.256,-23.166 36.671,-41.335 36.671,-41.335"
             inkscape:connector-curvature="0" />
          <path
             style="fill:none;fill-opacity:0.98514847;fill-rule:nonzero;stroke:#222222;stroke-width:10.60200691;stroke-linecap:round;stroke-linejoin:round;stroke-miterlimit:4;stroke-dasharray:none;stroke-opacity:0.98431373"
             id="path2470"
             d="m 260.349,26.207 c -5.591,1.753 89.848,-34.889 144.087,34.417 19.159,24.484 -3.043,124.519 -56.153,203.329"
             inkscape:connector-curvature="0" />
          <path
             id="path2472"
             d="m 348.282,263.953 c 0,0 3.461,17.036 53.764,6.653 22.04,-4.552 8.776,12.774 -13.577,23.155 -18.345,8.514 -59.474,10.696 -60.146,-1.069 -1.729,-30.355 21.647,-21.133 19.96,-28.739 -1.525,-6.85 -11.979,-13.573 -18.894,-30.338 -6.037,-14.633 -82.796,-126.849 21.287,-110.183 3.813,-0.789 -27.146,-99.002 -124.553,-100.599 -97.385,-1.597 -94.19,119.762 -94.19,119.762"
             style="fill:none;fill-opacity:0.98514847;fill-rule:nonzero;stroke:#222222;stroke-width:10.60200691;stroke-linecap:round;stroke-linejoin:bevel;stroke-miterlimit:4;stroke-dasharray:none;stroke-opacity:0.98431373"
             inkscape:connector-curvature="0" />
          <path
             style="fill:none;fill-opacity:0.98514847;fill-rule:nonzero;stroke:#222222;stroke-width:10.60200691;stroke-linecap:round;stroke-linejoin:round;stroke-miterlimit:4;stroke-dasharray:none;stroke-opacity:0.98431373"
             id="path2474"
             d="m 188.604,274.334 c -13.577,15.166 -9.584,17.829 -36.723,23.417 -27.459,5.66 -11.326,15.733 -0.797,18.365 12.768,3.195 42.307,7.718 62.266,-20.229 6.078,-8.509 -0.036,-22.086 -8.385,-25.547 -4.034,-1.671 -9.428,-3.765 -16.361,3.994 z"
             inkscape:connector-curvature="0" />
          <path
             style="fill:none;fill-opacity:0.98514847;fill-rule:nonzero;stroke:#222222;stroke-width:10.60200691;stroke-linecap:round;stroke-linejoin:round;stroke-miterlimit:4;stroke-dasharray:none;stroke-opacity:0.98431373"
             id="path2476"
             d="m 187.715,274.069 c -1.368,-8.917 2.93,-19.528 7.536,-31.942 6.922,-18.626 22.893,-37.255 10.117,-96.339 -9.523,-44.029 -73.396,-9.163 -73.436,-3.193 -0.039,5.968 2.889,30.26 -1.067,58.548 -5.162,36.913 23.488,68.132 56.479,64.938"
             inkscape:connector-curvature="0" />
          <path
             id="path2478"
             d="m 172.517,141.7 c -0.288,2.039 3.733,7.48 8.976,8.207 5.234,0.73 9.714,-3.522 9.998,-5.559 0.284,-2.039 -3.732,-4.285 -8.977,-5.015 -5.237,-0.731 -9.719,0.333 -9.996,2.367 z"
             style="fill:none;fill-opacity:0.98514847;fill-rule:nonzero;stroke:#222222;stroke-width:10.60200691;stroke-linecap:butt;stroke-linejoin:miter;stroke-miterlimit:4;stroke-dasharray:none;stroke-opacity:0.98431373"
             inkscape:connector-curvature="0" />
          <path
             id="path2480"
             d="m 331.941,137.543 c 0.284,2.039 -3.732,7.48 -8.976,8.207 -5.238,0.73 -9.718,-3.522 -10.005,-5.559 -0.277,-2.039 3.74,-4.285 8.979,-5.015 5.239,-0.73 9.718,0.333 10.002,2.368 z"
             style="fill:none;fill-opacity:0.98514847;fill-rule:nonzero;stroke:#222222;stroke-width:10.60200691;stroke-linecap:butt;stroke-linejoin:miter;stroke-miterlimit:4;stroke-dasharray:none;stroke-opacity:0.98431373"
             inkscape:connector-curvature="0" />
          <path
             style="fill:none;fill-opacity:0.98514847;fill-rule:nonzero;stroke:#222222;stroke-width:10.60200691;stroke-linecap:round;stroke-linejoin:round;stroke-miterlimit:4;stroke-dasharray:none;stroke-opacity:0.98431373"
             id="path2482"
             d="m 350.676,123.432 c 0.863,15.994 -3.445,26.888 -3.988,43.914 -0.804,24.748 11.799,53.074 -7.191,81.435"
             inkscape:connector-curvature="0" />
        </g>
        <path
           d=""
           style="fill:none;fill-opacity:0.98514847;fill-rule:nonzero;stroke:#222222;stroke-width:10.60200691;stroke-linecap:round;stroke-linejoin:round;stroke-miterlimit:4;stroke-dasharray:none;stroke-opacity:0.98431373"
           id="path2484"
           inkscape:connector-curvature="0" />
      </g>
    </g>
  </g>
</svg>
